<svg xmlns="http://www.w3.org/2000/svg" viewBox="0 0 300 30" width="300" height="30">
  <!-- Inner frame -->
  <rect x="10" y="0" width="280" height="16" fill="#1a1a2e"/>
  <rect x="12" y="2" width="276" height="12" fill="#0f0f1a"/>
  
  <!-- Button area -->
  <rect x="14" y="4" width="60" height="8" fill="#c9a227"/>
  <rect x="16" y="6" width="56" height="4" fill="#d4a574"/>
  
  <!-- Button text simulation -->
  <rect x="20" y="7" width="20" height="2" fill="#0f0f1a"/>
  <rect x="44" y="7" width="20" height="2" fill="#0f0f1a"/>
  
  <!-- Second button -->
  <rect x="80" y="4" width="50" height="8" fill="#8b7355"/>
  <rect x="82" y="6" width="46" height="4" fill="#6b5745"/>
  
  <!-- Third button -->
  <rect x="136" y="4" width="50" height="8" fill="#8b7355"/>
  <rect x="138" y="6" width="46" height="4" fill="#6b5745"/>
  
  <!-- Bottom border -->
  <rect x="0" y="18" width="300" height="2" fill="#d4a574"/>
  <rect x="0" y="22" width="300" height="4" fill="#c9a227"/>
  
  <!-- Corner decorations -->
  <rect x="0" y="10" width="8" height="10" fill="#c9a227"/>
  <rect x="292" y="10" width="8" height="10" fill="#c9a227"/>
  <rect x="2" y="18" width="4" height="4" fill="#d4a574"/>
  <rect x="294" y="18" width="4" height="4" fill="#d4a574"/>
</svg>
