<svg xmlns="http://www.w3.org/2000/svg" viewBox="0 0 300 30" width="300" height="30">
  <!-- Inner frame -->
  <rect x="10" y="0" width="280" height="16" fill="#1a2f1a"/>
  <rect x="12" y="2" width="276" height="12" fill="#0d1f0d"/>
  
  <!-- Button area -->
  <rect x="14" y="4" width="60" height="8" fill="#3d6b3d"/>
  <rect x="16" y="6" width="56" height="4" fill="#5a8a5a"/>
  
  <!-- Button text simulation -->
  <rect x="20" y="7" width="20" height="2" fill="#0d1f0d"/>
  <rect x="44" y="7" width="20" height="2" fill="#0d1f0d"/>
  
  <!-- Second button -->
  <rect x="80" y="4" width="50" height="8" fill="#5a4a3a"/>
  <rect x="82" y="6" width="46" height="4" fill="#7a6a5a"/>
  
  <!-- Third button -->
  <rect x="136" y="4" width="50" height="8" fill="#5a4a3a"/>
  <rect x="138" y="6" width="46" height="4" fill="#7a6a5a"/>
  
  <!-- Bottom border -->
  <rect x="0" y="18" width="300" height="2" fill="#5a8a5a"/>
  <rect x="0" y="22" width="300" height="4" fill="#3d6b3d"/>
  
  <!-- Corner decorations -->
  <rect x="0" y="10" width="8" height="10" fill="#3d6b3d"/>
  <rect x="292" y="10" width="8" height="10" fill="#3d6b3d"/>
  <rect x="2" y="18" width="4" height="4" fill="#5a8a5a"/>
  <rect x="294" y="18" width="4" height="4" fill="#5a8a5a"/>
</svg>