<svg xmlns="http://www.w3.org/2000/svg" 
	xmlns:xlink="http://www.w3.org/1999/xlink"
	width="460" 
	height="460" 
	viewBox="0 0 460 460"
	version="1.1"
>
  <g fill="rgb(255, 255, 255)"><rect x="0" y="0" width="260" height="10" /><rect x="300" y="0" width="160" height="10" /><rect x="0" y="10" width="220" height="10" /><rect x="320" y="10" width="140" height="10" /><rect x="0" y="20" width="200" height="10" /><rect x="340" y="20" width="120" height="10" /><rect x="0" y="30" width="190" height="10" /><rect x="350" y="30" width="110" height="10" /><rect x="0" y="40" width="180" height="10" /><rect x="360" y="40" width="100" height="10" /><rect x="0" y="50" width="170" height="10" /><rect x="370" y="50" width="90" height="10" /><rect x="0" y="60" width="160" height="10" /><rect x="380" y="60" width="80" height="10" /><rect x="0" y="70" width="160" height="10" /><rect x="380" y="70" width="80" height="10" /><rect x="0" y="80" width="150" height="10" /><rect x="390" y="80" width="70" height="10" /><rect x="0" y="90" width="140" height="10" /><rect x="390" y="90" width="70" height="10" /><rect x="0" y="100" width="140" height="10" /><rect x="390" y="100" width="70" height="10" /><rect x="0" y="110" width="130" height="10" /><rect x="400" y="110" width="60" height="10" /><rect x="0" y="120" width="130" height="10" /><rect x="400" y="120" width="60" height="10" /><rect x="0" y="130" width="130" height="10" /><rect x="400" y="130" width="60" height="10" /><rect x="0" y="140" width="130" height="10" /><rect x="390" y="140" width="70" height="10" /><rect x="0" y="150" width="140" height="10" /><rect x="380" y="150" width="80" height="10" /><rect x="0" y="160" width="130" height="10" /><rect x="380" y="160" width="80" height="10" /><rect x="0" y="170" width="130" height="10" /><rect x="380" y="170" width="80" height="10" /><rect x="0" y="180" width="120" height="10" /><rect x="370" y="180" width="90" height="10" /><rect x="0" y="190" width="120" height="10" /><rect x="360" y="190" width="100" height="10" /><rect x="0" y="200" width="120" height="10" /><rect x="340" y="200" width="120" height="10" /><rect x="0" y="210" width="110" height="10" /><rect x="320" y="210" width="140" height="10" /><rect x="0" y="220" width="110" height="10" /><rect x="320" y="220" width="140" height="10" /><rect x="0" y="230" width="100" height="10" /><rect x="330" y="230" width="130" height="10" /><rect x="0" y="240" width="100" height="10" /><rect x="330" y="240" width="130" height="10" /><rect x="0" y="250" width="90" height="10" /><rect x="330" y="250" width="130" height="10" /><rect x="0" y="260" width="90" height="10" /><rect x="340" y="260" width="120" height="10" /><rect x="0" y="270" width="80" height="10" /><rect x="340" y="270" width="120" height="10" /><rect x="0" y="280" width="80" height="10" /><rect x="340" y="280" width="120" height="10" /><rect x="0" y="290" width="70" height="10" /><rect x="340" y="290" width="120" height="10" /><rect x="0" y="300" width="70" height="10" /><rect x="340" y="300" width="120" height="10" /><rect x="0" y="310" width="60" height="10" /><rect x="340" y="310" width="120" height="10" /><rect x="0" y="320" width="60" height="10" /><rect x="340" y="320" width="120" height="10" /><rect x="0" y="330" width="60" height="10" /><rect x="330" y="330" width="130" height="10" /><rect x="0" y="340" width="60" height="10" /><rect x="330" y="340" width="130" height="10" /><rect x="0" y="350" width="50" height="10" /><rect x="340" y="350" width="120" height="10" /><rect x="0" y="360" width="50" height="10" /><rect x="340" y="360" width="120" height="10" /><rect x="0" y="370" width="50" height="10" /><rect x="340" y="370" width="120" height="10" /><rect x="0" y="380" width="50" height="10" /><rect x="340" y="380" width="120" height="10" /><rect x="0" y="390" width="60" height="10" /><rect x="350" y="390" width="110" height="10" /><rect x="0" y="400" width="70" height="10" /><rect x="340" y="400" width="120" height="10" /><rect x="0" y="410" width="80" height="10" /><rect x="340" y="410" width="120" height="10" /><rect x="0" y="420" width="100" height="10" /><rect x="320" y="420" width="140" height="10" /><rect x="0" y="430" width="120" height="10" /><rect x="310" y="430" width="150" height="10" /><rect x="0" y="440" width="160" height="10" /><rect x="290" y="440" width="170" height="10" /><rect x="0" y="450" width="160" height="10" /><rect x="220" y="450" width="20" height="10" /><rect x="290" y="450" width="170" height="10" /></g><g fill="rgb(238, 238, 238)"><rect x="260" y="0" width="40" height="10" /><rect x="380" y="80" width="10" height="10" /><rect x="140" y="90" width="10" height="10" /><rect x="130" y="130" width="10" height="10" /><rect x="130" y="160" width="10" height="10" /><rect x="350" y="190" width="10" height="10" /><rect x="100" y="230" width="10" height="10" /><rect x="320" y="230" width="10" height="10" /><rect x="330" y="270" width="10" height="10" /><rect x="70" y="290" width="10" height="10" /><rect x="60" y="310" width="10" height="10" /><rect x="50" y="350" width="10" height="10" /><rect x="50" y="380" width="10" height="10" /><rect x="60" y="390" width="10" height="10" /><rect x="340" y="390" width="10" height="10" /><rect x="70" y="400" width="10" height="10" /><rect x="330" y="410" width="10" height="10" /><rect x="100" y="420" width="10" height="10" /><rect x="120" y="430" width="10" height="10" /><rect x="300" y="430" width="10" height="10" /><rect x="160" y="450" width="10" height="10" /><rect x="280" y="450" width="10" height="10" /></g><g fill="rgb(221, 221, 204)"><rect x="220" y="10" width="10" height="10" /><rect x="310" y="10" width="10" height="10" /><rect x="370" y="170" width="10" height="10" /><rect x="60" y="320" width="10" height="10" /></g><g fill="rgb(187, 187, 187)"><rect x="230" y="10" width="10" height="10" /><rect x="170" y="50" width="10" height="10" /><rect x="160" y="70" width="10" height="10" /><rect x="140" y="150" width="10" height="20" /><rect x="130" y="170" width="10" height="10" /><rect x="60" y="330" width="10" height="10" /><rect x="130" y="430" width="10" height="10" /><rect x="160" y="440" width="10" height="10" /><rect x="200" y="450" width="10" height="10" /></g><g fill="rgb(187, 187, 170)"><rect x="240" y="10" width="10" height="10" /><rect x="340" y="30" width="10" height="10" /><rect x="350" y="40" width="10" height="10" /></g><g fill="rgb(170, 170, 170)"><rect x="250" y="10" width="10" height="10" /><rect x="300" y="10" width="10" height="10" /><rect x="380" y="140" width="10" height="10" /><rect x="330" y="370" width="10" height="10" /><rect x="110" y="420" width="10" height="10" /><rect x="310" y="420" width="10" height="10" /><rect x="230" y="440" width="10" height="10" /><rect x="180" y="450" width="20" height="10" /></g><g fill="rgb(136, 119, 102)"><rect x="260" y="10" width="10" height="10" /><rect x="200" y="30" width="10" height="10" /><rect x="140" y="120" width="10" height="10" /><rect x="160" y="170" width="10" height="10" /><rect x="130" y="180" width="10" height="10" /><rect x="250" y="190" width="10" height="10" /><rect x="60" y="350" width="10" height="10" /><rect x="70" y="390" width="10" height="10" /></g><g fill="rgb(119, 102, 102)"><rect x="270" y="10" width="20" height="10" /><rect x="150" y="90" width="10" height="10" /><rect x="140" y="140" width="10" height="10" /></g><g fill="rgb(170, 153, 136)"><rect x="290" y="10" width="10" height="10" /><rect x="360" y="60" width="10" height="10" /><rect x="280" y="430" width="10" height="10" /></g><g fill="rgb(221, 221, 221)"><rect x="200" y="20" width="10" height="10" /><rect x="330" y="20" width="10" height="10" /><rect x="190" y="30" width="10" height="10" /><rect x="160" y="60" width="10" height="10" /><rect x="390" y="110" width="10" height="10" /><rect x="130" y="120" width="10" height="10" /><rect x="390" y="120" width="10" height="10" /><rect x="310" y="210" width="10" height="10" /><rect x="90" y="250" width="10" height="10" /><rect x="80" y="270" width="10" height="10" /><rect x="330" y="280" width="10" height="50" /><rect x="330" y="350" width="10" height="10" /><rect x="50" y="360" width="10" height="20" /><rect x="240" y="450" width="40" height="10" /></g><g fill="rgb(170, 170, 153)"><rect x="210" y="20" width="10" height="10" /><rect x="370" y="70" width="10" height="10" /><rect x="120" y="190" width="10" height="10" /><rect x="230" y="200" width="10" height="10" /><rect x="100" y="240" width="10" height="10" /><rect x="320" y="330" width="10" height="10" /><rect x="330" y="380" width="10" height="10" /><rect x="320" y="410" width="10" height="10" /></g><g fill="rgb(187, 170, 153)"><rect x="220" y="20" width="10" height="10" /><rect x="220" y="190" width="10" height="10" /><rect x="320" y="190" width="10" height="10" /><rect x="80" y="400" width="10" height="10" /><rect x="210" y="440" width="10" height="10" /></g><g fill="rgb(204, 187, 136)"><rect x="230" y="20" width="20" height="10" /><rect x="340" y="40" width="10" height="10" /><rect x="350" y="50" width="10" height="10" /></g><g fill="rgb(187, 170, 136)"><rect x="250" y="20" width="10" height="10" /><rect x="310" y="20" width="10" height="10" /><rect x="320" y="140" width="10" height="10" /><rect x="330" y="160" width="10" height="10" /><rect x="210" y="200" width="10" height="10" /></g><g fill="rgb(221, 187, 136)"><rect x="260" y="20" width="10" height="10" /><rect x="320" y="50" width="10" height="10" /><rect x="330" y="60" width="10" height="20" /><rect x="220" y="100" width="10" height="10" /><rect x="350" y="100" width="10" height="10" /></g><g fill="rgb(187, 153, 119)"><rect x="270" y="20" width="10" height="10" /><rect x="220" y="90" width="10" height="10" /><rect x="180" y="120" width="10" height="10" /><rect x="230" y="140" width="10" height="10" /><rect x="240" y="150" width="10" height="10" /></g><g fill="rgb(187, 136, 102)"><rect x="280" y="20" width="10" height="10" /><rect x="170" y="80" width="10" height="20" /><rect x="190" y="100" width="10" height="10" /><rect x="250" y="100" width="10" height="10" /><rect x="350" y="110" width="10" height="10" /><rect x="230" y="120" width="10" height="10" /></g><g fill="rgb(170, 136, 102)"><rect x="290" y="20" width="10" height="10" /></g><g fill="rgb(170, 136, 119)"><rect x="300" y="20" width="10" height="10" /></g><g fill="rgb(170, 153, 153)"><rect x="320" y="20" width="10" height="10" /></g><g fill="rgb(221, 204, 170)"><rect x="210" y="30" width="10" height="10" /><rect x="270" y="160" width="10" height="10" /></g><g fill="rgb(255, 221, 170)"><rect x="220" y="30" width="50" height="10" /><rect x="200" y="40" width="70" height="10" /><rect x="320" y="40" width="10" height="10" /><rect x="190" y="50" width="50" height="10" /><rect x="250" y="50" width="20" height="10" /><rect x="200" y="60" width="20" height="10" /><rect x="250" y="60" width="30" height="10" /><rect x="230" y="70" width="40" height="10" /><rect x="290" y="70" width="10" height="10" /><rect x="280" y="80" width="10" height="10" /><rect x="270" y="90" width="10" height="10" /><rect x="210" y="100" width="10" height="10" /><rect x="190" y="130" width="10" height="10" /></g><g fill="rgb(238, 221, 170)"><rect x="270" y="30" width="10" height="20" /><rect x="280" y="50" width="10" height="10" /><rect x="220" y="60" width="10" height="10" /><rect x="240" y="60" width="10" height="10" /><rect x="300" y="60" width="10" height="10" /><rect x="210" y="70" width="10" height="10" /><rect x="280" y="70" width="10" height="10" /><rect x="300" y="70" width="10" height="10" /><rect x="230" y="80" width="10" height="10" /><rect x="250" y="80" width="10" height="10" /><rect x="290" y="80" width="10" height="10" /><rect x="340" y="80" width="10" height="10" /><rect x="260" y="90" width="10" height="10" /><rect x="350" y="90" width="10" height="10" /></g><g fill="rgb(238, 204, 153)"><rect x="280" y="30" width="10" height="10" /><rect x="310" y="30" width="10" height="10" /><rect x="280" y="40" width="20" height="10" /><rect x="330" y="40" width="10" height="10" /><rect x="240" y="50" width="10" height="10" /><rect x="270" y="50" width="10" height="10" /><rect x="300" y="50" width="10" height="10" /><rect x="330" y="50" width="20" height="10" /><rect x="190" y="60" width="10" height="10" /><rect x="230" y="60" width="10" height="10" /><rect x="280" y="60" width="10" height="10" /><rect x="340" y="60" width="20" height="10" /><rect x="200" y="70" width="10" height="10" /><rect x="270" y="70" width="10" height="10" /><rect x="340" y="70" width="10" height="10" /><rect x="240" y="80" width="10" height="10" /><rect x="260" y="80" width="10" height="10" /><rect x="210" y="90" width="10" height="10" /><rect x="250" y="90" width="10" height="10" /><rect x="280" y="90" width="10" height="10" /><rect x="340" y="90" width="10" height="10" /><rect x="360" y="90" width="10" height="10" /><rect x="230" y="100" width="10" height="10" /><rect x="210" y="110" width="30" height="10" /><rect x="190" y="120" width="10" height="10" /><rect x="220" y="120" width="10" height="20" /><rect x="200" y="140" width="30" height="10" /></g><g fill="rgb(204, 153, 119)"><rect x="290" y="30" width="10" height="10" /><rect x="320" y="60" width="10" height="10" /><rect x="180" y="90" width="20" height="10" /><rect x="190" y="150" width="20" height="10" /></g><g fill="rgb(221, 187, 153)"><rect x="300" y="30" width="10" height="10" /><rect x="290" y="90" width="10" height="10" /><rect x="200" y="120" width="10" height="10" /><rect x="350" y="120" width="10" height="10" /><rect x="200" y="130" width="10" height="10" /><rect x="190" y="140" width="10" height="10" /><rect x="220" y="160" width="10" height="10" /></g><g fill="rgb(204, 170, 136)"><rect x="320" y="30" width="10" height="10" /><rect x="300" y="40" width="20" height="10" /><rect x="310" y="50" width="10" height="10" /><rect x="180" y="70" width="10" height="10" /><rect x="310" y="70" width="10" height="10" /><rect x="360" y="70" width="10" height="10" /><rect x="200" y="80" width="10" height="10" /><rect x="330" y="80" width="10" height="10" /><rect x="230" y="90" width="10" height="10" /><rect x="210" y="150" width="20" height="10" /><rect x="250" y="160" width="10" height="10" /><rect x="170" y="180" width="10" height="10" /></g><g fill="rgb(153, 153, 136)"><rect x="330" y="30" width="10" height="10" /><rect x="350" y="140" width="10" height="10" /><rect x="320" y="250" width="10" height="10" /><rect x="330" y="400" width="10" height="10" /></g><g fill="rgb(204, 204, 204)"><rect x="180" y="40" width="10" height="10" /><rect x="370" y="60" width="10" height="10" /><rect x="380" y="90" width="10" height="10" /><rect x="130" y="110" width="10" height="10" /><rect x="320" y="200" width="10" height="10" /><rect x="320" y="240" width="10" height="10" /><rect x="70" y="300" width="10" height="10" /><rect x="330" y="360" width="10" height="10" /><rect x="90" y="410" width="10" height="10" /><rect x="290" y="430" width="10" height="10" /><rect x="280" y="440" width="10" height="10" /><rect x="170" y="450" width="10" height="10" /></g><g fill="rgb(153, 136, 119)"><rect x="190" y="40" width="10" height="10" /><rect x="370" y="80" width="10" height="10" /><rect x="240" y="140" width="10" height="10" /><rect x="60" y="380" width="10" height="10" /></g><g fill="rgb(170, 153, 119)"><rect x="180" y="50" width="10" height="10" /></g><g fill="rgb(238, 221, 153)"><rect x="290" y="50" width="10" height="20" /><rect x="350" y="70" width="10" height="10" /><rect x="270" y="80" width="10" height="10" /></g><g fill="rgb(204, 204, 187)"><rect x="360" y="50" width="10" height="10" /><rect x="280" y="150" width="10" height="10" /><rect x="180" y="180" width="10" height="10" /><rect x="110" y="220" width="10" height="10" /></g><g fill="rgb(119, 119, 102)"><rect x="170" y="60" width="10" height="10" /><rect x="100" y="250" width="10" height="10" /><rect x="320" y="270" width="10" height="10" /></g><g fill="rgb(204, 153, 136)"><rect x="180" y="60" width="10" height="10" /><rect x="180" y="80" width="10" height="10" /><rect x="180" y="100" width="10" height="10" /><rect x="340" y="180" width="10" height="10" /></g><g fill="rgb(204, 170, 119)"><rect x="310" y="60" width="10" height="10" /><rect x="220" y="70" width="10" height="20" /><rect x="300" y="80" width="10" height="10" /><rect x="240" y="90" width="10" height="20" /><rect x="360" y="100" width="10" height="10" /><rect x="210" y="130" width="10" height="10" /></g><g fill="rgb(153, 119, 102)"><rect x="170" y="70" width="10" height="10" /><rect x="140" y="110" width="10" height="10" /><rect x="170" y="130" width="10" height="10" /><rect x="290" y="130" width="10" height="10" /><rect x="230" y="210" width="10" height="10" /></g><g fill="rgb(221, 170, 136)"><rect x="190" y="70" width="10" height="20" /><rect x="260" y="100" width="30" height="10" /><rect x="340" y="100" width="10" height="10" /><rect x="210" y="120" width="10" height="10" /></g><g fill="rgb(221, 187, 170)"><rect x="320" y="70" width="10" height="10" /><rect x="330" y="90" width="10" height="10" /><rect x="250" y="120" width="50" height="10" /><rect x="240" y="180" width="10" height="10" /></g><g fill="rgb(204, 221, 204)"><rect x="150" y="80" width="10" height="10" /><rect x="360" y="180" width="10" height="10" /></g><g fill="rgb(119, 85, 68)"><rect x="160" y="80" width="10" height="10" /><rect x="380" y="120" width="10" height="10" /><rect x="280" y="130" width="10" height="10" /><rect x="180" y="170" width="20" height="10" /><rect x="120" y="330" width="10" height="10" /><rect x="250" y="370" width="10" height="10" /><rect x="220" y="430" width="10" height="10" /></g><g fill="rgb(204, 153, 102)"><rect x="210" y="80" width="10" height="10" /><rect x="200" y="90" width="10" height="10" /><rect x="240" y="110" width="10" height="10" /></g><g fill="rgb(238, 204, 187)"><rect x="310" y="80" width="10" height="10" /><rect x="290" y="100" width="10" height="10" /><rect x="270" y="110" width="10" height="10" /><rect x="320" y="120" width="10" height="10" /><rect x="320" y="160" width="10" height="10" /><rect x="270" y="170" width="10" height="10" /><rect x="250" y="180" width="10" height="10" /><rect x="330" y="180" width="10" height="10" /><rect x="310" y="190" width="10" height="10" /></g><g fill="rgb(255, 221, 204)"><rect x="320" y="80" width="10" height="10" /><rect x="310" y="90" width="20" height="10" /><rect x="300" y="100" width="30" height="10" /><rect x="280" y="110" width="60" height="10" /><rect x="300" y="120" width="20" height="10" /><rect x="300" y="140" width="20" height="10" /><rect x="290" y="150" width="30" height="10" /><rect x="280" y="160" width="40" height="10" /><rect x="280" y="170" width="40" height="10" /><rect x="270" y="180" width="30" height="10" /><rect x="320" y="180" width="10" height="10" /></g><g fill="rgb(221, 204, 153)"><rect x="350" y="80" width="10" height="10" /></g><g fill="rgb(221, 204, 136)"><rect x="360" y="80" width="10" height="10" /></g><g fill="rgb(170, 119, 85)"><rect x="160" y="90" width="10" height="20" /><rect x="170" y="100" width="10" height="10" /><rect x="370" y="100" width="10" height="10" /><rect x="150" y="110" width="20" height="10" /><rect x="370" y="110" width="10" height="10" /><rect x="150" y="120" width="10" height="10" /><rect x="360" y="120" width="20" height="10" /><rect x="180" y="130" width="10" height="10" /><rect x="230" y="130" width="10" height="10" /><rect x="370" y="130" width="10" height="10" /><rect x="170" y="150" width="20" height="10" /><rect x="170" y="160" width="20" height="10" /><rect x="200" y="160" width="10" height="10" /><rect x="250" y="400" width="10" height="10" /></g><g fill="rgb(238, 221, 187)"><rect x="300" y="90" width="10" height="10" /></g><g fill="rgb(153, 136, 102)"><rect x="370" y="90" width="10" height="10" /><rect x="330" y="130" width="10" height="10" /><rect x="300" y="420" width="10" height="10" /><rect x="150" y="430" width="10" height="10" /></g><g fill="rgb(153, 136, 136)"><rect x="140" y="100" width="10" height="10" /><rect x="370" y="160" width="10" height="10" /></g><g fill="rgb(136, 102, 85)"><rect x="150" y="100" width="10" height="10" /><rect x="170" y="120" width="10" height="10" /><rect x="240" y="130" width="10" height="10" /></g><g fill="rgb(187, 136, 85)"><rect x="200" y="100" width="10" height="20" /><rect x="250" y="110" width="10" height="10" /><rect x="150" y="180" width="10" height="10" /></g><g fill="rgb(238, 221, 204)"><rect x="330" y="100" width="10" height="10" /><rect x="340" y="110" width="10" height="10" /><rect x="330" y="120" width="10" height="10" /><rect x="300" y="130" width="20" height="10" /><rect x="310" y="180" width="10" height="10" /><rect x="190" y="190" width="10" height="10" /><rect x="280" y="190" width="20" height="10" /></g><g fill="rgb(136, 136, 119)"><rect x="380" y="100" width="10" height="10" /><rect x="350" y="150" width="10" height="10" /><rect x="250" y="200" width="10" height="10" /><rect x="310" y="200" width="10" height="10" /><rect x="60" y="340" width="10" height="10" /><rect x="320" y="340" width="10" height="10" /></g><g fill="rgb(153, 119, 85)"><rect x="170" y="110" width="10" height="10" /><rect x="350" y="130" width="10" height="10" /><rect x="240" y="210" width="10" height="10" /><rect x="250" y="380" width="10" height="20" /><rect x="240" y="400" width="10" height="20" /><rect x="250" y="410" width="10" height="10" /><rect x="240" y="420" width="20" height="10" /><rect x="160" y="430" width="10" height="10" /></g><g fill="rgb(102, 68, 68)"><rect x="180" y="110" width="10" height="10" /><rect x="170" y="170" width="10" height="10" /></g><g fill="rgb(51, 34, 17)"><rect x="190" y="110" width="10" height="10" /></g><g fill="rgb(170, 136, 85)"><rect x="260" y="110" width="10" height="10" /><rect x="230" y="260" width="10" height="10" /><rect x="240" y="280" width="10" height="10" /><rect x="280" y="380" width="10" height="10" /></g><g fill="rgb(170, 119, 68)"><rect x="360" y="110" width="10" height="10" /><rect x="170" y="190" width="10" height="10" /><rect x="160" y="200" width="10" height="10" /><rect x="190" y="200" width="10" height="10" /><rect x="250" y="270" width="10" height="10" /><rect x="170" y="310" width="10" height="20" /><rect x="160" y="390" width="10" height="10" /><rect x="320" y="390" width="10" height="10" /><rect x="130" y="400" width="10" height="10" /><rect x="160" y="400" width="10" height="10" /><rect x="120" y="410" width="10" height="10" /><rect x="140" y="420" width="10" height="10" /><rect x="160" y="420" width="10" height="10" /><rect x="280" y="420" width="10" height="10" /></g><g fill="rgb(102, 85, 68)"><rect x="380" y="110" width="10" height="10" /><rect x="380" y="130" width="10" height="10" /><rect x="160" y="160" width="10" height="10" /><rect x="230" y="180" width="10" height="10" /><rect x="240" y="360" width="10" height="10" /><rect x="240" y="390" width="10" height="10" /></g><g fill="rgb(153, 102, 51)"><rect x="160" y="120" width="10" height="10" /><rect x="270" y="210" width="10" height="10" /><rect x="250" y="220" width="10" height="10" /><rect x="250" y="250" width="10" height="10" /><rect x="150" y="310" width="10" height="10" /><rect x="120" y="320" width="20" height="10" /><rect x="70" y="380" width="20" height="10" /><rect x="320" y="380" width="10" height="10" /><rect x="100" y="390" width="10" height="10" /><rect x="170" y="400" width="10" height="10" /><rect x="200" y="400" width="10" height="10" /><rect x="300" y="400" width="20" height="10" /><rect x="110" y="410" width="10" height="10" /><rect x="180" y="410" width="10" height="10" /><rect x="300" y="410" width="10" height="10" /><rect x="170" y="420" width="10" height="20" /></g><g fill="rgb(221, 170, 153)"><rect x="240" y="120" width="10" height="10" /><rect x="340" y="160" width="10" height="10" /><rect x="300" y="180" width="10" height="10" /></g><g fill="rgb(221, 204, 187)"><rect x="340" y="120" width="10" height="10" /><rect x="260" y="190" width="10" height="10" /></g><g fill="rgb(102, 85, 85)"><rect x="140" y="130" width="10" height="10" /></g><g fill="rgb(170, 119, 102)"><rect x="150" y="130" width="10" height="20" /></g><g fill="rgb(153, 102, 85)"><rect x="160" y="130" width="10" height="10" /><rect x="150" y="150" width="10" height="10" /></g><g fill="rgb(119, 85, 51)"><rect x="250" y="130" width="30" height="10" /><rect x="70" y="350" width="10" height="20" /></g><g fill="rgb(187, 153, 136)"><rect x="320" y="130" width="10" height="10" /></g><g fill="rgb(119, 102, 68)"><rect x="340" y="130" width="10" height="10" /><rect x="140" y="170" width="10" height="10" /><rect x="160" y="210" width="10" height="10" /><rect x="180" y="220" width="10" height="10" /><rect x="260" y="250" width="10" height="10" /><rect x="230" y="400" width="10" height="10" /><rect x="220" y="410" width="10" height="10" /></g><g fill="rgb(136, 102, 68)"><rect x="360" y="130" width="10" height="10" /><rect x="150" y="190" width="10" height="10" /><rect x="180" y="200" width="10" height="10" /><rect x="220" y="270" width="10" height="10" /><rect x="110" y="290" width="10" height="10" /><rect x="320" y="310" width="10" height="10" /><rect x="120" y="380" width="10" height="20" /><rect x="130" y="390" width="10" height="10" /><rect x="120" y="400" width="10" height="10" /><rect x="150" y="400" width="10" height="10" /><rect x="210" y="400" width="20" height="10" /><rect x="270" y="400" width="10" height="10" /><rect x="150" y="410" width="10" height="10" /><rect x="210" y="410" width="10" height="10" /><rect x="270" y="410" width="10" height="10" /><rect x="150" y="420" width="10" height="10" /><rect x="220" y="420" width="10" height="10" /><rect x="270" y="420" width="10" height="10" /><rect x="210" y="430" width="10" height="10" /></g><g fill="rgb(221, 238, 221)"><rect x="390" y="130" width="10" height="10" /><rect x="120" y="180" width="10" height="10" /><rect x="330" y="200" width="10" height="10" /><rect x="110" y="210" width="10" height="10" /></g><g fill="rgb(238, 255, 238)"><rect x="130" y="140" width="10" height="10" /><rect x="80" y="410" width="10" height="10" /><rect x="210" y="450" width="10" height="10" /></g><g fill="rgb(153, 102, 68)"><rect x="160" y="140" width="20" height="10" /><rect x="160" y="150" width="10" height="10" /><rect x="190" y="160" width="10" height="10" /><rect x="210" y="160" width="10" height="10" /><rect x="140" y="330" width="10" height="10" /><rect x="140" y="410" width="10" height="10" /><rect x="210" y="420" width="10" height="10" /></g><g fill="rgb(153, 119, 68)"><rect x="180" y="140" width="10" height="10" /><rect x="140" y="180" width="10" height="10" /><rect x="170" y="200" width="10" height="10" /><rect x="190" y="210" width="20" height="10" /><rect x="220" y="260" width="10" height="10" /><rect x="160" y="300" width="10" height="10" /><rect x="150" y="330" width="10" height="10" /><rect x="310" y="370" width="10" height="10" /><rect x="140" y="390" width="20" height="10" /><rect x="270" y="390" width="10" height="10" /><rect x="90" y="400" width="10" height="10" /><rect x="110" y="400" width="10" height="10" /><rect x="140" y="400" width="10" height="10" /><rect x="320" y="400" width="10" height="10" /><rect x="130" y="410" width="10" height="10" /><rect x="290" y="420" width="10" height="10" /><rect x="200" y="430" width="10" height="10" /></g><g fill="rgb(102, 119, 68)"><rect x="250" y="140" width="10" height="10" /><rect x="340" y="140" width="10" height="10" /><rect x="160" y="220" width="20" height="10" /><rect x="300" y="220" width="10" height="10" /><rect x="170" y="230" width="10" height="10" /><rect x="190" y="230" width="10" height="10" /><rect x="280" y="230" width="10" height="10" /><rect x="300" y="230" width="10" height="10" /><rect x="270" y="240" width="10" height="20" /><rect x="290" y="250" width="10" height="10" /><rect x="270" y="260" width="10" height="10" /><rect x="290" y="280" width="10" height="10" /><rect x="310" y="280" width="10" height="10" /><rect x="100" y="300" width="10" height="10" /><rect x="290" y="300" width="10" height="10" /><rect x="230" y="380" width="10" height="10" /></g><g fill="rgb(119, 119, 68)"><rect x="260" y="140" width="10" height="10" /><rect x="330" y="140" width="10" height="10" /><rect x="210" y="260" width="10" height="10" /><rect x="260" y="280" width="10" height="10" /><rect x="110" y="320" width="10" height="10" /><rect x="170" y="330" width="10" height="10" /><rect x="260" y="380" width="10" height="10" /></g><g fill="rgb(119, 136, 85)"><rect x="270" y="140" width="10" height="10" /><rect x="120" y="220" width="10" height="10" /><rect x="200" y="260" width="10" height="10" /><rect x="200" y="280" width="10" height="10" /><rect x="280" y="290" width="10" height="10" /><rect x="90" y="320" width="10" height="10" /><rect x="300" y="320" width="10" height="10" /><rect x="240" y="330" width="10" height="10" /><rect x="310" y="350" width="10" height="10" /><rect x="230" y="360" width="10" height="10" /></g><g fill="rgb(170, 170, 136)"><rect x="280" y="140" width="10" height="10" /></g><g fill="rgb(221, 187, 187)"><rect x="290" y="140" width="10" height="10" /></g><g fill="rgb(102, 68, 51)"><rect x="360" y="140" width="20" height="10" /><rect x="360" y="150" width="10" height="10" /></g><g fill="rgb(238, 170, 153)"><rect x="230" y="150" width="10" height="20" /><rect x="240" y="160" width="10" height="20" /><rect x="250" y="170" width="10" height="10" /><rect x="340" y="170" width="10" height="10" /></g><g fill="rgb(136, 153, 85)"><rect x="250" y="150" width="10" height="10" /><rect x="340" y="150" width="10" height="10" /><rect x="210" y="270" width="10" height="10" /><rect x="270" y="280" width="10" height="10" /><rect x="290" y="310" width="10" height="10" /><rect x="90" y="350" width="10" height="10" /><rect x="230" y="350" width="10" height="10" /></g><g fill="rgb(136, 153, 102)"><rect x="260" y="150" width="10" height="10" /><rect x="330" y="150" width="10" height="10" /><rect x="140" y="210" width="10" height="10" /><rect x="120" y="230" width="10" height="20" /><rect x="170" y="240" width="10" height="10" /><rect x="120" y="250" width="10" height="10" /><rect x="180" y="250" width="10" height="10" /><rect x="120" y="260" width="10" height="10" /><rect x="180" y="290" width="10" height="10" /><rect x="200" y="290" width="20" height="10" /><rect x="270" y="290" width="10" height="10" /><rect x="210" y="300" width="20" height="10" /><rect x="90" y="330" width="10" height="10" /><rect x="110" y="330" width="10" height="10" /><rect x="250" y="330" width="10" height="10" /><rect x="90" y="340" width="10" height="10" /><rect x="120" y="340" width="10" height="10" /><rect x="230" y="340" width="10" height="10" /><rect x="260" y="350" width="10" height="10" /></g><g fill="rgb(153, 170, 119)"><rect x="270" y="150" width="10" height="10" /><rect x="130" y="210" width="10" height="20" /><rect x="140" y="220" width="10" height="10" /><rect x="130" y="240" width="10" height="10" /><rect x="160" y="240" width="10" height="10" /><rect x="130" y="250" width="10" height="10" /><rect x="160" y="250" width="20" height="10" /><rect x="130" y="260" width="10" height="10" /><rect x="160" y="260" width="10" height="10" /><rect x="180" y="260" width="10" height="20" /><rect x="140" y="280" width="50" height="10" /><rect x="200" y="300" width="10" height="10" /><rect x="260" y="300" width="10" height="10" /><rect x="220" y="310" width="20" height="10" /><rect x="260" y="310" width="10" height="10" /><rect x="280" y="310" width="10" height="10" /><rect x="230" y="320" width="10" height="10" /><rect x="260" y="320" width="10" height="10" /><rect x="290" y="320" width="10" height="10" /><rect x="100" y="330" width="10" height="10" /><rect x="230" y="330" width="10" height="10" /><rect x="100" y="340" width="20" height="10" /><rect x="150" y="340" width="40" height="10" /><rect x="260" y="340" width="10" height="10" /><rect x="300" y="340" width="10" height="10" /><rect x="100" y="350" width="20" height="10" /><rect x="270" y="350" width="10" height="10" /><rect x="300" y="350" width="10" height="10" /><rect x="120" y="360" width="10" height="10" /><rect x="270" y="360" width="10" height="10" /><rect x="300" y="360" width="10" height="10" /><rect x="140" y="370" width="10" height="10" /><rect x="220" y="370" width="10" height="10" /><rect x="280" y="370" width="10" height="10" /><rect x="170" y="380" width="10" height="10" /><rect x="220" y="380" width="10" height="10" /></g><g fill="rgb(204, 204, 170)"><rect x="320" y="150" width="10" height="10" /></g><g fill="rgb(136, 119, 119)"><rect x="370" y="150" width="10" height="10" /><rect x="210" y="180" width="10" height="10" /><rect x="240" y="200" width="10" height="10" /></g><g fill="rgb(68, 68, 68)"><rect x="150" y="160" width="10" height="10" /></g><g fill="rgb(170, 170, 119)"><rect x="260" y="160" width="10" height="10" /></g><g fill="rgb(187, 136, 119)"><rect x="350" y="160" width="10" height="20" /><rect x="130" y="330" width="10" height="10" /></g><g fill="rgb(136, 85, 68)"><rect x="360" y="160" width="10" height="10" /></g><g fill="rgb(238, 204, 170)"><rect x="150" y="170" width="10" height="10" /></g><g fill="rgb(119, 85, 85)"><rect x="200" y="170" width="10" height="10" /></g><g fill="rgb(85, 68, 68)"><rect x="210" y="170" width="10" height="10" /><rect x="230" y="190" width="10" height="10" /></g><g fill="rgb(170, 136, 136)"><rect x="220" y="170" width="10" height="10" /></g><g fill="rgb(238, 187, 170)"><rect x="230" y="170" width="10" height="10" /><rect x="330" y="170" width="10" height="10" /></g><g fill="rgb(238, 170, 170)"><rect x="260" y="170" width="10" height="10" /></g><g fill="rgb(255, 204, 187)"><rect x="320" y="170" width="10" height="10" /></g><g fill="rgb(119, 102, 85)"><rect x="360" y="170" width="10" height="10" /><rect x="320" y="300" width="10" height="10" /><rect x="60" y="360" width="10" height="20" /><rect x="330" y="390" width="10" height="10" /><rect x="100" y="410" width="10" height="10" /></g><g fill="rgb(187, 153, 85)"><rect x="160" y="180" width="10" height="10" /><rect x="240" y="250" width="10" height="10" /><rect x="240" y="270" width="10" height="10" /><rect x="240" y="310" width="10" height="10" /></g><g fill="rgb(187, 170, 170)"><rect x="190" y="180" width="20" height="10" /><rect x="220" y="440" width="10" height="10" /></g><g fill="rgb(51, 34, 34)"><rect x="220" y="180" width="10" height="10" /></g><g fill="rgb(255, 204, 204)"><rect x="260" y="180" width="10" height="10" /></g><g fill="rgb(102, 102, 85)"><rect x="350" y="180" width="10" height="10" /><rect x="80" y="290" width="10" height="10" /></g><g fill="rgb(85, 51, 34)"><rect x="130" y="190" width="10" height="10" /></g><g fill="rgb(187, 136, 68)"><rect x="140" y="190" width="10" height="10" /><rect x="160" y="190" width="10" height="10" /><rect x="200" y="220" width="10" height="10" /><rect x="120" y="290" width="10" height="10" /><rect x="140" y="300" width="20" height="10" /><rect x="120" y="310" width="10" height="10" /><rect x="90" y="380" width="10" height="10" /><rect x="130" y="380" width="10" height="10" /><rect x="310" y="380" width="10" height="10" /><rect x="290" y="390" width="10" height="10" /><rect x="200" y="420" width="10" height="10" /></g><g fill="rgb(204, 170, 102)"><rect x="180" y="190" width="10" height="10" /></g><g fill="rgb(204, 187, 187)"><rect x="200" y="190" width="20" height="10" /></g><g fill="rgb(34, 17, 17)"><rect x="240" y="190" width="10" height="10" /></g><g fill="rgb(238, 204, 204)"><rect x="270" y="190" width="10" height="10" /><rect x="300" y="190" width="10" height="10" /></g><g fill="rgb(85, 85, 68)"><rect x="330" y="190" width="10" height="10" /><rect x="260" y="200" width="10" height="10" /><rect x="90" y="280" width="10" height="10" /><rect x="310" y="330" width="10" height="10" /><rect x="200" y="440" width="10" height="10" /><rect x="240" y="440" width="10" height="10" /><rect x="270" y="440" width="10" height="10" /></g><g fill="rgb(136, 153, 136)"><rect x="340" y="190" width="10" height="10" /></g><g fill="rgb(85, 102, 85)"><rect x="120" y="200" width="10" height="10" /><rect x="310" y="220" width="10" height="10" /><rect x="70" y="310" width="10" height="10" /></g><g fill="rgb(119, 119, 85)"><rect x="130" y="200" width="10" height="10" /><rect x="150" y="210" width="10" height="10" /><rect x="180" y="240" width="10" height="10" /><rect x="200" y="240" width="30" height="10" /><rect x="260" y="240" width="10" height="10" /><rect x="300" y="240" width="10" height="10" /><rect x="200" y="250" width="20" height="10" /><rect x="300" y="250" width="10" height="10" /><rect x="290" y="260" width="20" height="10" /><rect x="290" y="270" width="20" height="10" /><rect x="300" y="280" width="10" height="10" /><rect x="90" y="300" width="10" height="20" /><rect x="80" y="320" width="10" height="20" /><rect x="230" y="370" width="10" height="10" /><rect x="120" y="420" width="10" height="10" /></g><g fill="rgb(102, 102, 68)"><rect x="140" y="200" width="10" height="10" /><rect x="200" y="230" width="10" height="10" /><rect x="310" y="260" width="10" height="10" /><rect x="100" y="270" width="20" height="10" /><rect x="310" y="270" width="10" height="10" /><rect x="100" y="280" width="10" height="20" /><rect x="250" y="340" width="10" height="10" /><rect x="240" y="350" width="10" height="10" /><rect x="260" y="370" width="10" height="10" /></g><g fill="rgb(136, 102, 51)"><rect x="150" y="200" width="10" height="10" /><rect x="170" y="210" width="10" height="10" /><rect x="210" y="210" width="10" height="20" /><rect x="230" y="280" width="10" height="10" /><rect x="250" y="280" width="10" height="10" /><rect x="310" y="290" width="10" height="10" /><rect x="130" y="300" width="10" height="10" /><rect x="110" y="310" width="10" height="10" /><rect x="90" y="360" width="10" height="10" /><rect x="80" y="390" width="10" height="10" /><rect x="180" y="400" width="10" height="10" /><rect x="290" y="410" width="10" height="10" /><rect x="130" y="420" width="10" height="10" /></g><g fill="rgb(187, 153, 102)"><rect x="200" y="200" width="10" height="10" /><rect x="240" y="260" width="20" height="10" /><rect x="230" y="270" width="10" height="10" /></g><g fill="rgb(204, 187, 153)"><rect x="220" y="200" width="10" height="10" /></g><g fill="rgb(102, 85, 51)"><rect x="270" y="200" width="10" height="10" /><rect x="240" y="380" width="10" height="10" /><rect x="230" y="410" width="10" height="10" /><rect x="270" y="430" width="10" height="10" /></g><g fill="rgb(85, 68, 51)"><rect x="280" y="200" width="20" height="10" /><rect x="260" y="440" width="10" height="10" /></g><g fill="rgb(51, 51, 51)"><rect x="300" y="200" width="10" height="10" /></g><g fill="rgb(85, 102, 68)"><rect x="120" y="210" width="10" height="10" /><rect x="180" y="230" width="10" height="10" /><rect x="290" y="230" width="10" height="20" /><rect x="100" y="260" width="10" height="10" /><rect x="280" y="270" width="10" height="20" /><rect x="70" y="330" width="10" height="10" /><rect x="240" y="340" width="10" height="10" /></g><g fill="rgb(170, 136, 68)"><rect x="180" y="210" width="10" height="10" /><rect x="220" y="210" width="10" height="10" /><rect x="130" y="290" width="10" height="10" /><rect x="240" y="290" width="10" height="10" /><rect x="170" y="300" width="10" height="10" /><rect x="170" y="390" width="20" height="10" /><rect x="310" y="410" width="10" height="10" /></g><g fill="rgb(153, 136, 85)"><rect x="250" y="210" width="10" height="10" /><rect x="250" y="290" width="10" height="10" /></g><g fill="rgb(136, 119, 85)"><rect x="260" y="210" width="10" height="10" /><rect x="320" y="290" width="10" height="10" /><rect x="320" y="320" width="10" height="10" /></g><g fill="rgb(119, 85, 34)"><rect x="280" y="210" width="10" height="10" /><rect x="190" y="220" width="10" height="10" /><rect x="220" y="220" width="10" height="10" /><rect x="270" y="220" width="10" height="10" /><rect x="80" y="360" width="10" height="20" /><rect x="190" y="420" width="10" height="10" /></g><g fill="rgb(102, 68, 34)"><rect x="290" y="210" width="10" height="10" /><rect x="260" y="220" width="10" height="10" /><rect x="310" y="320" width="10" height="10" /><rect x="200" y="410" width="10" height="10" /></g><g fill="rgb(68, 68, 51)"><rect x="300" y="210" width="10" height="10" /><rect x="110" y="230" width="10" height="10" /><rect x="260" y="420" width="10" height="10" /><rect x="230" y="430" width="10" height="10" /><rect x="250" y="440" width="10" height="10" /></g><g fill="rgb(136, 170, 102)"><rect x="150" y="220" width="10" height="10" /><rect x="160" y="230" width="10" height="10" /><rect x="120" y="270" width="10" height="10" /><rect x="190" y="300" width="10" height="10" /><rect x="180" y="330" width="10" height="10" /><rect x="270" y="370" width="10" height="10" /></g><g fill="rgb(136, 102, 34)"><rect x="230" y="220" width="20" height="10" /><rect x="280" y="220" width="10" height="10" /><rect x="310" y="310" width="10" height="10" /></g><g fill="rgb(102, 102, 51)"><rect x="290" y="220" width="10" height="10" /><rect x="70" y="340" width="10" height="10" /><rect x="260" y="390" width="10" height="10" /></g><g fill="rgb(153, 187, 119)"><rect x="130" y="230" width="30" height="10" /><rect x="140" y="240" width="20" height="10" /><rect x="140" y="250" width="20" height="10" /><rect x="140" y="260" width="20" height="10" /><rect x="170" y="260" width="10" height="10" /><rect x="140" y="270" width="40" height="10" /><rect x="190" y="310" width="30" height="10" /><rect x="270" y="310" width="10" height="10" /><rect x="190" y="320" width="40" height="10" /><rect x="270" y="320" width="20" height="10" /><rect x="190" y="330" width="40" height="10" /><rect x="260" y="330" width="40" height="10" /><rect x="190" y="340" width="40" height="10" /><rect x="270" y="340" width="30" height="10" /><rect x="120" y="350" width="110" height="10" /><rect x="280" y="350" width="20" height="10" /><rect x="130" y="360" width="100" height="10" /><rect x="280" y="360" width="20" height="10" /><rect x="150" y="370" width="70" height="10" /><rect x="180" y="380" width="40" height="10" /></g><g fill="rgb(85, 51, 17)"><rect x="210" y="230" width="10" height="10" /></g><g fill="rgb(153, 119, 51)"><rect x="220" y="230" width="10" height="10" /><rect x="240" y="240" width="10" height="10" /><rect x="120" y="300" width="10" height="10" /><rect x="300" y="300" width="10" height="10" /><rect x="160" y="320" width="10" height="10" /><rect x="90" y="370" width="20" height="10" /><rect x="100" y="380" width="10" height="10" /><rect x="290" y="380" width="10" height="10" /><rect x="90" y="390" width="10" height="10" /><rect x="100" y="400" width="10" height="10" /><rect x="280" y="400" width="10" height="20" /><rect x="180" y="430" width="20" height="10" /></g><g fill="rgb(170, 119, 51)"><rect x="230" y="230" width="10" height="10" /><rect x="250" y="230" width="20" height="10" /><rect x="130" y="310" width="10" height="10" /><rect x="160" y="310" width="10" height="10" /><rect x="140" y="320" width="10" height="10" /><rect x="110" y="380" width="10" height="20" /><rect x="280" y="390" width="10" height="10" /><rect x="290" y="400" width="10" height="10" /><rect x="170" y="410" width="10" height="10" /><rect x="180" y="420" width="10" height="10" /></g><g fill="rgb(170, 119, 34)"><rect x="240" y="230" width="10" height="10" /></g><g fill="rgb(85, 68, 34)"><rect x="270" y="230" width="10" height="10" /><rect x="190" y="440" width="10" height="10" /></g><g fill="rgb(68, 85, 68)"><rect x="310" y="230" width="10" height="10" /><rect x="70" y="320" width="10" height="10" /></g><g fill="rgb(51, 85, 51)"><rect x="110" y="240" width="10" height="10" /><rect x="280" y="250" width="10" height="10" /></g><g fill="rgb(51, 85, 34)"><rect x="190" y="240" width="10" height="50" /></g><g fill="rgb(136, 119, 68)"><rect x="230" y="240" width="10" height="10" /><rect x="250" y="240" width="10" height="10" /><rect x="220" y="250" width="10" height="10" /><rect x="260" y="260" width="10" height="10" /><rect x="160" y="330" width="10" height="10" /><rect x="230" y="390" width="10" height="10" /></g><g fill="rgb(85, 102, 51)"><rect x="280" y="240" width="10" height="10" /></g><g fill="rgb(102, 119, 85)"><rect x="310" y="240" width="10" height="20" /><rect x="320" y="280" width="10" height="10" /><rect x="90" y="290" width="10" height="10" /><rect x="80" y="310" width="10" height="10" /><rect x="80" y="340" width="10" height="10" /><rect x="310" y="340" width="10" height="10" /><rect x="260" y="360" width="10" height="10" /></g><g fill="rgb(68, 85, 51)"><rect x="110" y="250" width="10" height="10" /><rect x="80" y="300" width="10" height="10" /><rect x="300" y="310" width="10" height="10" /><rect x="260" y="400" width="10" height="20" /></g><g fill="rgb(136, 85, 51)"><rect x="230" y="250" width="10" height="10" /></g><g fill="rgb(153, 153, 153)"><rect x="90" y="260" width="10" height="10" /><rect x="80" y="280" width="10" height="10" /><rect x="140" y="430" width="10" height="10" /></g><g fill="rgb(68, 102, 51)"><rect x="110" y="260" width="10" height="10" /><rect x="280" y="260" width="10" height="10" /><rect x="270" y="270" width="10" height="10" /><rect x="190" y="290" width="10" height="10" /></g><g fill="rgb(119, 119, 119)"><rect x="320" y="260" width="10" height="10" /></g><g fill="rgb(255, 255, 238)"><rect x="330" y="260" width="10" height="10" /></g><g fill="rgb(119, 136, 102)"><rect x="90" y="270" width="10" height="10" /></g><g fill="rgb(153, 170, 102)"><rect x="130" y="270" width="10" height="10" /><rect x="200" y="270" width="10" height="10" /><rect x="130" y="280" width="10" height="10" /><rect x="210" y="280" width="10" height="10" /><rect x="160" y="290" width="20" height="10" /><rect x="220" y="290" width="10" height="10" /><rect x="230" y="300" width="10" height="10" /><rect x="270" y="300" width="20" height="10" /><rect x="100" y="320" width="10" height="10" /><rect x="250" y="320" width="10" height="10" /><rect x="300" y="330" width="10" height="10" /><rect x="110" y="360" width="10" height="10" /><rect x="130" y="370" width="10" height="10" /><rect x="290" y="370" width="10" height="10" /><rect x="160" y="380" width="10" height="10" /></g><g fill="rgb(119, 102, 51)"><rect x="260" y="270" width="10" height="10" /><rect x="110" y="280" width="10" height="10" /><rect x="110" y="300" width="10" height="10" /><rect x="180" y="300" width="10" height="20" /><rect x="80" y="350" width="10" height="10" /><rect x="320" y="370" width="10" height="10" /></g><g fill="rgb(170, 153, 85)"><rect x="120" y="280" width="10" height="10" /><rect x="140" y="290" width="10" height="10" /><rect x="250" y="300" width="10" height="10" /><rect x="100" y="360" width="10" height="10" /><rect x="120" y="370" width="10" height="10" /><rect x="300" y="370" width="10" height="10" /><rect x="190" y="390" width="40" height="10" /></g><g fill="rgb(153, 153, 85)"><rect x="220" y="280" width="10" height="10" /><rect x="150" y="290" width="10" height="10" /><rect x="230" y="290" width="10" height="10" /><rect x="150" y="380" width="10" height="10" /></g><g fill="rgb(153, 153, 102)"><rect x="260" y="290" width="10" height="10" /><rect x="240" y="320" width="10" height="10" /><rect x="310" y="360" width="10" height="10" /></g><g fill="rgb(102, 119, 51)"><rect x="290" y="290" width="10" height="10" /></g><g fill="rgb(136, 119, 51)"><rect x="300" y="290" width="10" height="10" /></g><g fill="rgb(187, 153, 68)"><rect x="240" y="300" width="10" height="10" /><rect x="110" y="370" width="10" height="10" /><rect x="140" y="380" width="10" height="10" /></g><g fill="rgb(136, 85, 34)"><rect x="310" y="300" width="10" height="10" /><rect x="70" y="370" width="10" height="10" /><rect x="310" y="390" width="10" height="10" /><rect x="190" y="400" width="10" height="10" /></g><g fill="rgb(136, 136, 85)"><rect x="100" y="310" width="10" height="10" /><rect x="130" y="340" width="20" height="10" /><rect x="320" y="360" width="10" height="10" /><rect x="270" y="380" width="10" height="10" /></g><g fill="rgb(204, 136, 68)"><rect x="140" y="310" width="10" height="10" /></g><g fill="rgb(170, 170, 102)"><rect x="250" y="310" width="10" height="10" /></g><g fill="rgb(187, 136, 51)"><rect x="150" y="320" width="10" height="10" /><rect x="160" y="410" width="10" height="10" /></g><g fill="rgb(119, 136, 68)"><rect x="180" y="320" width="10" height="10" /></g><g fill="rgb(85, 85, 51)"><rect x="250" y="350" width="10" height="20" /><rect x="240" y="370" width="10" height="10" /><rect x="230" y="420" width="10" height="10" /></g><g fill="rgb(102, 119, 102)"><rect x="320" y="350" width="10" height="10" /></g><g fill="rgb(153, 102, 34)"><rect x="300" y="380" width="10" height="10" /></g><g fill="rgb(170, 136, 51)"><rect x="300" y="390" width="10" height="10" /></g><g fill="rgb(102, 85, 34)"><rect x="190" y="410" width="10" height="10" /></g><g fill="rgb(68, 51, 51)"><rect x="240" y="430" width="10" height="10" /><rect x="170" y="440" width="10" height="10" /></g><g fill="rgb(68, 51, 34)"><rect x="250" y="430" width="10" height="10" /><rect x="180" y="440" width="10" height="10" /></g><g fill="rgb(34, 34, 17)"><rect x="260" y="430" width="10" height="10" /></g>
</svg>